# xmcd
# 
# Track frame offsets:
#     150
#     35707
#     66327
#     99887
#     160275
# 
# Disc length: 2646
# 
# Revision: 3
# Processed by: cddbd v1.5.2PL0 Copyright (c) Steve Scherf et al.
# Submitted via: BonkEnc v1.0.15
# 
DISCID=3c0a5405
DTITLE=Sonny Clark - Sonny's Crib
DYEAR=1957
DGENRE=Jazz
TTITLE0=With A Song In My Heart
TTITLE1=Speak Low
TTITLE2=Come Rain Or Come Shine
TTITLE3=Sonny's Crib
TTITLE4=News For Lulu
EXTD=YEAR: 1957
EXTT0=
EXTT1=
EXTT2=
EXTT3=
EXTT4=
PLAYORDER=
